#!OML:ASF G:\JayActor3\Patient Classification 1\Patient 1\Session 6\male.ASF
:FULLY-SPECIFIED
:DEGREES
554
root 34.9553 15.5768 -6.16342 188.711 -34.8544 -186.645
lowerback 17.4966 -1.60953 0.670899
upperback 7.09422 -2.80851 0.217169
thorax -2.22967 -1.72463 0.3943
lowerneck 8.21793 4.04991 9.07184
upperneck 0.869421 5.93629 -11.749
head -0.459423 3.14317 -5.15811
rclavicle -2.74323e-014 -1.59028e-014
rhumerus -33.7067 9.39781 -87.8655
rradius 125.698
rwrist 17.7439
rhand 15.7111 -19.7744
rfingers 7.12502
rthumb 40.5206 -44.8413
lclavicle -2.74323e-014 -1.59028e-014
lhumerus -41.2736 -3.18889 88.919
lradius 130.616
lwrist 6.05409
lhand 7.64996 38.4248
lfingers 7.12502
lthumb 32.8941 65.4473
rfemur -43.1842 0.45991 10.8268
rtibia 39.0273
rfoot -19.3184 -11.2577
rtoes -12.9819
lfemur 4.38779 10.4936 -20.804
ltibia 32.3487
lfoot -15.9245 13.6203
ltoes -18.6292
555
root 34.9373 15.5977 -6.28002 188.797 -35.2831 -186.402
lowerback 17.6148 -1.66635 1.04613
upperback 7.10143 -2.8172 0.413734
thorax -2.28837 -1.72703 0.395921
lowerneck 8.19637 4.02772 9.14774
upperneck 0.688742 5.90625 -11.8163
head -0.508055 3.1333 -5.19322
rclavicle 3.85642e-014 -2.06736e-014
rhumerus -33.6943 9.29199 -87.7921
rradius 125.668
rwrist 17.8115
rhand 15.6868 -19.7525
rfingers 7.12502
rthumb 40.4977 -44.8264
lclavicle 3.85642e-014 -2.06736e-014
lhumerus -41.0763 -3.43946 89.0859
lradius 130.507
lwrist 6.09733
lhand 7.68773 38.4581
lfingers 7.12502
lthumb 32.9301 65.473
rfemur -43.0117 0.171596 11.281
rtibia 39.1515
rfoot -18.9306 -11.1571
rtoes -12.4581
lfemur 2.62521 11.0077 -20.1185
ltibia 35.3866
lfoot -15.0644 13.1335
ltoes -16.9702
556
root 34.9211 15.6176 -6.3959 188.813 -35.7684 -186.08
lowerback 17.7526 -1.73192 1.48207
upperback 7.1267 -2.82961 0.633181
thorax -2.33883 -1.73258 0.388674
lowerneck 8.16343 4.00253 9.2155
upperneck 0.529071 5.87199 -11.8593
head -0.550044 3.12019 -5.21883
rclavicle -8.3092e-014 5.56597e-015
rhumerus -33.6413 9.19432 -87.6839
rradius 125.632
rwrist 17.8718
rhand 15.7155 -19.7315
rfingers 7.12502
rthumb 40.5247 -44.7971
lclavicle -8.3092e-014 5.56597e-015
lhumerus -40.8867 -3.66933 89.2476
lradius 130.439
lwrist 6.20094
lhand 7.74261 38.5242
lfingers 7.12502
lthumb 32.9823 65.5282
rfemur -42.794 -0.142201 11.8104
rtibia 39.261
rfoot -18.5768 -11.0641
rtoes -11.9317
lfemur 0.766226 11.5334 -19.351
ltibia 38.597
lfoot -14.1348 12.6039
ltoes -14.3879
557
root 34.9062 15.6355 -6.51026 188.773 -36.271 -185.711
lowerback 17.9122 -1.79469 1.9523
upperback 7.17126 -2.83562 0.857641
thorax -2.38063 -1.73653 0.366867
lowerneck 8.1319 3.96901 9.28636
upperneck 0.365977 5.82706 -11.8831
head -0.594841 3.10151 -5.23907
rclavicle 3.29983e-014 -2.22639e-014
rhumerus -33.5453 9.10795 -87.553
rradius 125.596
rwrist 17.9267
rhand 15.7723 -19.7184
rfingers 7.12502
rthumb 40.5781 -44.7674
lclavicle 3.29983e-014 -2.22639e-014
lhumerus -40.7211 -3.87466 89.3907
lradius 130.433
lwrist 6.36837
lhand 7.80687 38.6116
lfingers 7.12502
lthumb 33.0434 65.6026
rfemur -42.5555 -0.475305 12.384
rtibia 39.3788
rfoot -18.2561 -10.9685
rtoes -11.4084
lfemur -1.15536 12.0733 -18.5489
ltibia 41.9384
lfoot -13.2561 12.0721
ltoes -11.2965
558
root 34.8927 15.6508 -6.62274 188.692 -36.7597 -185.32
lowerback 18.1049 -1.84804 2.41206
upperback 7.2255 -2.83223 1.08423
thorax -2.42792 -1.73765 0.352936
lowerneck 8.11826 3.92903 9.35893
upperneck 0.191553 5.77405 -11.8974
head -0.64696 3.07911 -5.25731
rclavicle -2.38542e-014 2.22639e-014
rhumerus -33.4213 9.06081 -87.3997
rradius 125.574
rwrist 17.9661
rhand 15.8463 -19.7087
rfingers 7.12502
rthumb 40.6477 -44.736
lclavicle -2.38542e-014 2.22639e-014
lhumerus -40.5976 -4.03959 89.5142
lradius 130.494
lwrist 6.56056
lhand 7.85779 38.683
lfingers 7.12502
lthumb 33.0918 65.6638
rfemur -42.3221 -0.822584 12.983
rtibia 39.518
rfoot -17.9439 -10.8511
rtoes -10.9402
lfemur -3.11414 12.6333 -17.7443
ltibia 45.3698
lfoot -12.5311 11.5457
ltoes -8.16197
559
root 34.8804 15.6633 -6.73314 188.593 -37.205 -184.939
lowerback 18.3217 -1.88486 2.83511
upperback 7.29159 -2.81484 1.29694
thorax -2.47339 -1.73365 0.343361
lowerneck 8.13493 3.88221 9.42493
upperneck -0.00711371 5.71192 -11.8957
head -0.712725 3.05283 -5.2707
rclavicle 1.07344e-014 -2.70347e-014
rhumerus -33.2682 9.05602 -87.2406
rradius 125.57
rwrist 17.9996
rhand 15.9107 -19.7018
rfingers 7.12502
rthumb 40.7082 -44.7103
lclavicle 1.07344e-014 -2.70347e-014
lhumerus -40.5151 -4.1758 89.6109
lradius 130.622
lwrist 6.7425
lhand 7.84254 38.705
lfingers 7.12502
lthumb 33.0773 65.6889
rfemur -42.1116 -1.16276 13.5745
rtibia 39.6844
rfoot -17.626 -10.706
rtoes -10.5019
lfemur -5.08701 13.2148 -16.9762
ltibia 48.8463
lfoot -12.0391 11.0269
ltoes -5.639
